<?xml version="1.0" standalone="no"?><!DOCTYPE svg PUBLIC "-//W3C//DTD SVG 1.1//EN" "http://www.w3.org/Graphics/SVG/1.1/DTD/svg11.dtd"><svg t="1720942024935" class="icon" viewBox="0 0 1024 1024" version="1.1" xmlns="http://www.w3.org/2000/svg" p-id="6210" xmlns:xlink="http://www.w3.org/1999/xlink" width="48" height="48"><path d="M313.4 166.5c14.1 3.4 27.7 8.5 41.3 14.7 57.1 26.6 104 75.2 125.5 139.6l79.1 200.1c41.8 123.8-36.2 262.8-159.9 304.1C275.6 866.8 129.8 803 88 679.2L30.3 471.7C-11.5 347.9 55.7 212.9 179.5 171c29.4-9.6 58.8-13.6 88.2-11.9" fill="#9C623A" p-id="6211"></path><path d="M434.9 789.9c-123.8 41.8-269.6-22-311.4-145.8L65.9 436.7c-27.1-79.7-8.5-164.5 41.3-225.5C32 271.7-1.9 375.6 30.9 472.3l57.6 207.4c41.8 123.8 187.6 187.1 311.4 145.8 45.2-15.3 84.2-43.5 113.6-79.1-23.7 18.6-49.7 33.3-78.6 43.5z m0 0" fill="#824319" p-id="6212"></path><path d="M232.1 173.9s105.7 149.2 108.5 239.6c2.8 90.4-32.2 271.3-27.1 321 5.1 50.3 3.4 104 3.4 104l-31.1-9.6s-17-32.2-22-111.9c-5.1-79.7 46.3-156.5 18.6-286.5-27.7-130-36.7-198.4-71.8-242.4-34.5-43 21.5-14.2 21.5-14.2z m0 0" fill="#4C2409" p-id="6213"></path><path d="M340.6 413.5c-2.8-90.4-108.5-239.6-108.5-239.6s-27.7-14.7-31.7-7.3c8.5 2.8 17.5 7.3 17.5 7.3s105.7 149.2 108.5 239.6c2.8 90.4-32.2 271.3-27.1 321 4 41.8 3.4 86.5 3.4 100l14.1 4.5s1.7-54.3-3.4-104c-5-50.2 29.4-231.1 27.2-321.5z m0 0" fill="#3D1C06" p-id="6214"></path><path d="M458.1 787.6c-2.3-2.3-4.5-4-6.2-6.2-88.2-88.2-95.5-239.6-7.3-327.8l62.7-56.5-13-32.2-98.9 88.7c-88.2 88.2-80.3 239.6 7.3 327.8 7.9 7.9 17 15.8 26 22.6 10.2-5.1 19.8-10.1 29.4-16.4z m0 0" fill="#3D1C06" p-id="6215"></path><path d="M320.2 854.6c-39.7 0-78.9-8.6-115-25-64.8-29.7-112.4-81.2-134-145l-0.3-0.9-57.5-207C-8 412.7-3.2 344 27.1 283.1c30.3-60.9 82.3-106.4 146.5-128.1 31.4-10.3 63.2-14.6 94.6-12.7 9.4 0.5 16.5 8.6 15.9 17.9-0.5 9.3-8.6 16.4-17.9 15.9-27.1-1.6-54.7 2.2-81.9 11.1-55.5 18.7-100.5 58.2-126.8 111C31.2 351.1 27 410.8 45.8 466.3l0.3 0.9 57.5 207c18.6 54.6 59.7 98.9 115.8 124.6 55 25.2 118.4 28.9 173.9 10.2 58.3-19.4 107.8-63 136-119.7 26.2-52.6 31-110.3 13.5-162.5l-79.3-200.6c-14-42.6-42.1-80.7-79.1-107.4l-0.6-0.4c-7.3-5.7-15.5-10.6-23.3-14.9-9.8-5.6-20-10.3-30.6-14-5.8-1.9-10.2-6.8-11.3-12.8-1.2-6 1-12.2 5.7-16.2s11.1-5.1 16.9-3c12.6 4.4 24.7 9.9 36.2 16.6 8.7 4.9 18.1 10.5 27.1 17.5 42.5 30.7 74.8 74.6 91.1 123.6l79.2 200.4c20.6 60.9 15.2 127.9-15.1 188.9C527.5 769 470.8 818.8 404.1 841c-26.8 9.1-55.2 13.6-83.9 13.6z m0 0" fill="#231815" p-id="6216"></path><path d="M448.5 791c-92.1-92.1-100-251.5-7.9-343.6l159.9-144.1c92.1-92.1 243.6-92.1 335.7 0s92.1 243.6 0 335.7L792.1 798.9c-92.1 92.7-250.9 84.3-343.6-7.9z m0 0" fill="#9C623A" p-id="6217"></path><path d="M457.6 481.3l159.9-144.1c92.1-92.1 243.6-92.1 335.7 0 13.6 13.6 25.4 28.8 35 44.6-11.3-28.8-28.8-55.4-52-78.6-92.1-92.1-243.6-92.1-335.7 0L440.6 447.4c-78 78-84.2 203.5-28.8 296.1-36.2-87.5-22.6-193.2 45.8-262.2z m0 0" fill="#AF7146" p-id="6218"></path><path d="M913.6 596.6l-144.1 160c-92.1 92.1-251.5 84.2-343.6-7.9-11.9-11.9-22-24.3-30.5-37.9 12.4 29.4 30 57.1 53.1 80.2 92.1 92.1 251.5 100 343.6 7.9L936.2 639c41.3-41.3 64.4-94.9 68.4-149.2-2.3-28.8-9.6-57.6-22-84.2 0 1.7 0 3.4-0.6 5.1 5.1 66.7-17.5 135.1-68.4 185.9z m0 0" fill="#824319" p-id="6219"></path><path d="M932.8 320.8s-29.4 177.5-103.4 229.5c-42.4 30-167.9 49.2-231.7 70.1-56 18.7-105.1 52.6-141.8 98.3l-31.7 39-5.1-11.3c10.7-28.3 24.3-55.4 40.1-81.4 11.9-19.8 23.7-41.3 36.7-59.9 23.2-33.9 62.2-53.7 102.9-53.7h37.9c72.3 0 141.3-32.8 184.2-91.6 1.7-2.3 3.4-5.1 5.1-7.3 33.3-49.2 72.9-111.3 82.5-140.7 17.6-53.1 24.3 9 24.3 9z m0 0" fill="#4C2409" p-id="6220"></path><path d="M460.4 713c5.1-10.2 10.7-20.3 17-30 11.9-19.8 23.7-41.3 36.7-59.9 23.2-33.9 62.2-53.7 102.9-53.7h37.9c72.3 0 141.3-32.8 184.2-91.6 1.7-2.3 3.4-5.1 5.1-7.3 33.3-49.2 72.9-111.3 82.5-140.7 1.7-5.7 4-10.2 5.7-13.6-1.7-13.6-9-48-23.2-4.5-9.6 29.4-49.2 91.6-82.5 140.7-1.7 2.8-3.4 5.1-5.1 7.3-42.4 58.8-111.9 91.6-184.2 91.6h-37.9c-41.3 0-79.7 19.8-102.9 53.7-13 19.2-24.9 40.7-36.7 59.9-15.8 26-29.4 53.1-40.1 81.4l5.1 11.3 31.6-39c0.5-2.2 2.2-3.9 3.9-5.6z m0 0" fill="#3D1C06" p-id="6221"></path><path d="M714.2 332.1c-7 0-13.2-4.3-15.8-10.7s-0.9-13.9 4.2-18.6c9.7-9.1 22.6-15.6 37.3-18.9 9-1.8 17.8 4 19.8 13s-3.5 17.9-12.5 20.1c-6.1 1.4-14.8 4.3-21.5 10.5-3.1 3-7.3 4.6-11.5 4.6z m0 0" fill="#FFFFFF" p-id="6222"></path><path d="M577.4 763.9c0 4.1 7.6 7.3 17 7.3s17-3.3 17-7.3c0-4.1-7.6-7.3-17-7.3s-17 3.2-17 7.3z m0 0M206.6 711.3c0 4.1 7.6 7.3 17 7.3s17-3.3 17-7.3c0-4.1-7.6-7.3-17-7.3s-17 3.3-17 7.3z m0 0M178.4 733.9c0 4.1 7.6 7.3 17 7.3s17-3.3 17-7.3c0-4.1-7.6-7.3-17-7.3s-17 3.3-17 7.3z m0 0M138.8 666.1c0 2.6 3.2 5.1 8.5 6.4 5.2 1.3 11.7 1.3 17 0 5.2-1.3 8.5-3.7 8.5-6.4 0-2.6-3.2-5.1-8.5-6.4-5.2-1.3-11.7-1.3-17 0-5.3 1.4-8.5 3.8-8.5 6.4z m0 0" fill="#4C2409" p-id="6223"></path><path d="M662.1 336.1c0 4.1 7.6 7.3 17 7.3s17-3.3 17-7.3c0-4.1-7.6-7.3-17-7.3-9.4-0.1-17 3.2-17 7.3z m0 0M705.7 349.6c0 4.1 7.6 7.3 17 7.3s17-3.3 17-7.3c0-4.1-7.6-7.3-17-7.3s-17 3.3-17 7.3z m0 0" fill="#895430" p-id="6224"></path><path d="M607.9 780.9c0 4.1 7.6 7.3 17 7.3s17-3.3 17-7.3c0-4.1-7.6-7.3-17-7.3-9.4-0.1-17 3.2-17 7.3z m0 0M558.7 788.2c0 4.1 7.6 7.3 17 7.3s17-3.3 17-7.3c0-4.1-7.6-7.3-17-7.3s-17 3.2-17 7.3z m0 0" fill="#4C2409" p-id="6225"></path><path d="M553.1 748.6c0 4.1 7.6 7.3 17 7.3s17-3.3 17-7.3c0-4.1-7.6-7.3-17-7.3s-17 3.3-17 7.3z m0 0" fill="#4C2409" p-id="6226"></path><path d="M629.2 881.2c-2.9 0-5.9 0-8.9-0.1-69.1-2.2-135.9-30.6-183.3-78-47.4-47.4-75.8-114.2-78-183.3-2.2-71.4 22.7-136.9 70.1-184.3l0.6-0.6L589.4 291c99.2-98.9 260.3-98.7 359.4 0.3 99.1 99 99.2 260.1 0.4 359.3L916.7 687c-6.2 7-16.9 7.6-23.9 1.4-7-6.2-7.6-17-1.4-23.9l33.4-37.4c85.9-85.9 85.9-225.8 0-311.7-86-85.9-225.8-85.9-311.7 0l-0.6 0.6-159.6 143.7c-82.7 83.1-78.9 232.2 8.2 319.3 41.4 41.4 99.8 66.2 160.4 68.1 61.9 2 118.2-19.3 159-59.9l72.6-81c6.2-7 17-7.6 23.9-1.4 7 6.2 7.6 17 1.4 23.9l-73.6 82.1c-45.6 45.6-107.6 70.4-175.6 70.4z m0 0" fill="#020202" p-id="6227"></path><path d="M342.3 294.3c0 3.6 2.7 7 7.1 8.8 4.4 1.8 9.8 1.8 14.1 0 4.4-1.8 7.1-5.2 7.1-8.8 0-3.6-2.7-7-7.1-8.8-4.4-1.8-9.8-1.8-14.1 0-4.4 1.8-7.1 5.1-7.1 8.8z m0 0M291.4 223.6c0 4.1 8.9 7.3 19.8 7.3s19.8-3.3 19.8-7.3c0-4.1-8.9-7.3-19.8-7.3s-19.8 3.3-19.8 7.3z m0 0M164.2 352.5c0 4.1 8.9 7.3 19.8 7.3s19.8-3.3 19.8-7.3c0-4.1-8.9-7.3-19.8-7.3-10.9-0.1-19.8 3.2-19.8 7.3z m0 0M192.5 380.7c0 4.1 8.9 7.3 19.8 7.3s19.8-3.3 19.8-7.3c0-4.1-8.9-7.3-19.8-7.3s-19.8 3.3-19.8 7.3z m0 0M392.6 274.5c0 5.6 2 10.2 4.5 10.2s4.5-4.6 4.5-10.2-2-10.2-4.5-10.2-4.5 4.6-4.5 10.2z m0 0" fill="#895430" p-id="6228"></path><path d="M351.9 292c-7.9 0-14.8-5.5-16.5-13.3-1.4-6.1-4.3-14.8-10.5-21.5-6.3-6.9-5.9-17.5 0.9-23.9 6.8-6.4 17.5-6 23.9 0.7 9.1 9.7 15.6 22.6 18.9 37.3 1.1 5-0.1 10.3-3.3 14.3-3.4 4.1-8.3 6.4-13.4 6.4z m0 0" fill="#FFFFFF" p-id="6229"></path></svg>