<?xml version="1.0" standalone="no"?><!DOCTYPE svg PUBLIC "-//W3C//DTD SVG 1.1//EN" "http://www.w3.org/Graphics/SVG/1.1/DTD/svg11.dtd"><svg t="1720941891639" class="icon" viewBox="0 0 1024 1024" version="1.1" xmlns="http://www.w3.org/2000/svg" p-id="3382" xmlns:xlink="http://www.w3.org/1999/xlink" width="48" height="48"><path d="M591.147049 786.957483c0-46.851828 18.937086-162.549224 24.453233-195.271618a7.499936 7.499936 0 0 0-7.398722-8.754986H335.875942a7.499936 7.499936 0 0 0-7.398722 8.754986c5.516147 32.732515 24.453233 148.429911 24.453233 195.271618 0 44.534034-17.12536 86.031657-23.552431 99.978906A26.062531 26.062531 0 0 0 326.979257 897.766256v34.615091a91.618653 91.618653 0 0 0 91.618653 91.618653h106.881682a91.618653 91.618653 0 0 0 91.618653-91.618653V897.766256a26.062531 26.062531 0 0 0-2.388644-10.880474c-6.427071-13.927007-23.562553-55.374023-23.562552-99.928299z" fill="#261412" p-id="3383"></path><path d="M608.657021 407.20363H335.42048L334.064217 411.77849v171.152389h275.959189v-171.152389z" fill="#FD2A00" p-id="3384"></path><path d="M381.634662 491.899265l-7.08496 1.285414a5.172021 5.172021 0 0 0-1.70039-3.309688 4.929108 4.929108 0 0 0-3.299568-1.012137 5.394691 5.394691 0 0 0-4.301582 1.862332q-1.609298 1.862332-1.609298 6.234765 0 4.858258 1.62954 6.86229a5.354205 5.354205 0 0 0 4.382554 2.024274 4.86838 4.86838 0 0 0 3.370417-1.174079 7.08496 7.08496 0 0 0 1.852211-4.048549l7.08496 1.204443a12.590986 12.590986 0 0 1-4.240855 7.37848 13.157783 13.157783 0 0 1-8.400738 2.489858 12.489772 12.489772 0 0 1-9.544453-3.775272q-3.562723-3.775272-3.562723-10.455377t3.572844-10.526226a12.6922 12.6922 0 0 1 9.706395-3.775271 13.157783 13.157783 0 0 1 7.925034 2.14573A11.892611 11.892611 0 0 1 381.634662 491.899265zM385.409933 497.040922a14.767081 14.767081 0 0 1 1.77124-6.963504 12.145646 12.145646 0 0 1 5.060686-5.141656 14.90878 14.90878 0 0 1 7.257023-1.77124 13.623366 13.623366 0 0 1 10.121372 4.048548 13.896643 13.896643 0 0 1 3.957456 10.121372 14.058585 14.058585 0 0 1-3.997942 10.26307 13.501909 13.501909 0 0 1-10.060643 4.048549 15.850068 15.850068 0 0 1-7.15581-1.700391 11.629456 11.629456 0 0 1-5.182142-4.888622 16.568685 16.568685 0 0 1-1.77124-8.016126z m7.398723 0.384612a9.038385 9.038385 0 0 0 1.92306 6.214522 6.305614 6.305614 0 0 0 9.493847 0q1.912939-2.155852 1.912939-6.27525a8.997899 8.997899 0 0 0-1.912939-6.163915 6.305614 6.305614 0 0 0-9.493847 0 9.038385 9.038385 0 0 0-1.963546 6.224643zM443.020779 491.899265l-7.08496 1.285414A5.172021 5.172021 0 0 0 434.265793 489.874991a4.929108 4.929108 0 0 0-3.299567-1.082987 5.394691 5.394691 0 0 0-4.301583 1.862333q-1.609298 1.912939-1.609298 6.305614 0 4.858258 1.629541 6.86229a5.354205 5.354205 0 0 0 4.382554 2.024274 4.86838 4.86838 0 0 0 3.370416-1.174079 7.08496 7.08496 0 0 0 1.852211-4.048549l7.08496 1.204443a12.590986 12.590986 0 0 1-4.240854 7.37848 13.157783 13.157783 0 0 1-8.400739 2.489858 12.489772 12.489772 0 0 1-9.544453-3.775272q-3.562723-3.775272-3.562723-10.455377t3.572844-10.526226a12.6922 12.6922 0 0 1 9.66591-3.76515 13.157783 13.157783 0 0 1 7.925034 2.145731 11.892611 11.892611 0 0 1 4.230733 6.578891zM453.891132 492.111814l-6.548527-1.224686a10.212464 10.212464 0 0 1 3.805635-5.860274q2.702406-1.902818 8.016126-1.902818a17.287302 17.287302 0 0 1 7.196295 1.143715 7.176052 7.176052 0 0 1 3.329932 2.904834q1.012137 1.761119 1.012137 6.467556l-0.080971 8.431102a29.260885 29.260885 0 0 0 0.344126 5.303599 15.49582 15.49582 0 0 0 1.295536 3.663936h-7.145688q-0.283398-0.718617-0.698375-2.135609-0.182185-0.637646-0.253034-0.850195a13.016084 13.016084 0 0 1-3.957456 2.702406 11.335936 11.335936 0 0 1-4.493889 0.900802 9.30154 9.30154 0 0 1-6.63962-2.28743 7.60115 7.60115 0 0 1-2.429129-5.779303 7.763092 7.763092 0 0 1 1.10323-4.129519 7.216538 7.216538 0 0 1 3.097139-2.773256 24.200199 24.200199 0 0 1 5.688211-1.649784 39.291164 39.291164 0 0 0 7.01411-1.77124v-0.718617a3.744907 3.744907 0 0 0-1.012137-2.965562q-1.012137-0.890681-3.876485-0.890681a5.172021 5.172021 0 0 0-3.036412 0.759103 5.273234 5.273234 0 0 0-1.730754 2.661921z m9.66591 5.860274a45.040103 45.040103 0 0 1-4.392676 1.103229 13.238754 13.238754 0 0 0-3.927092 1.255051 3.036411 3.036411 0 0 0-1.416992 2.540464 3.54248 3.54248 0 0 0 1.133594 2.621435 3.947335 3.947335 0 0 0 2.874469 1.103229 6.255007 6.255007 0 0 0 3.724665-1.285414 4.524253 4.524253 0 0 0 1.720633-2.388643 14.271134 14.271134 0 0 0 0.283399-3.522238zM516.188173 491.899265l-7.08496 1.285414a5.172021 5.172021 0 0 0-1.629541-3.208474A4.929108 4.929108 0 0 0 504.103255 488.862854a5.394691 5.394691 0 0 0-4.301583 1.862332q-1.609298 1.862332-1.609298 6.234765 0 4.858258 1.629541 6.86229a5.354205 5.354205 0 0 0 4.382554 2.024274 4.86838 4.86838 0 0 0 3.370417-1.174079 7.08496 7.08496 0 0 0 1.852211-4.048549l7.08496 1.204443a12.580865 12.580865 0 0 1-4.240855 7.37848 13.157783 13.157783 0 0 1-8.400738 2.489858 12.489772 12.489772 0 0 1-9.544453-3.775272q-3.562723-3.775272-3.562723-10.455377t3.572844-10.526226a12.6922 12.6922 0 0 1 9.66591-3.76515 13.157783 13.157783 0 0 1 7.925033 2.145731 11.892611 11.892611 0 0 1 4.261098 6.578891zM519.993808 497.040922a14.767081 14.767081 0 0 1 1.77124-6.963504 12.145646 12.145646 0 0 1 5.060686-5.141656 14.90878 14.90878 0 0 1 7.257023-1.77124 13.623366 13.623366 0 0 1 10.121372 4.048548 13.896643 13.896643 0 0 1 3.957456 10.121372 14.058585 14.058585 0 0 1-3.997942 10.26307 13.501909 13.501909 0 0 1-10.060643 4.048549 15.850068 15.850068 0 0 1-7.15581-1.700391 11.629456 11.629456 0 0 1-5.182142-4.969593 16.568685 16.568685 0 0 1-1.77124-7.935155z m7.398723 0.384612a9.038385 9.038385 0 0 0 1.92306 6.214522 6.305614 6.305614 0 0 0 9.493847 0q1.912939-2.155852 1.912939-6.27525a8.997899 8.997899 0 0 0-1.912939-6.163915 6.305614 6.305614 0 0 0-9.493847 0 9.038385 9.038385 0 0 0-1.933182 6.224643zM553.80931 511.069143v-37.671745h7.216538v37.671745zM573.829382 492.111814l-6.548527-1.224686a10.212464 10.212464 0 0 1 3.805636-5.860274q2.702406-1.902818 8.016126-1.902818a17.287302 17.287302 0 0 1 7.196295 1.143715 7.176052 7.176052 0 0 1 3.329931 2.904834q1.012137 1.761119 1.012137 6.467556l-0.080971 8.431102a29.260885 29.260885 0 0 0 0.344127 5.303599 15.49582 15.49582 0 0 0 1.295536 3.663936h-7.145689q-0.283398-0.718617-0.698374-2.135609-0.182185-0.637646-0.253035-0.850195a13.016084 13.016084 0 0 1-3.957456 2.702406 11.335936 11.335936 0 0 1-4.493889 0.900802 9.30154 9.30154 0 0 1-6.639619-2.28743 7.60115 7.60115 0 0 1-2.429129-5.779303 7.763092 7.763092 0 0 1 1.103229-4.129519 7.216538 7.216538 0 0 1 3.09714-2.773256 24.200199 24.200199 0 0 1 5.738817-1.680148 39.270921 39.270921 0 0 0 7.014111-1.77124v-0.718617a3.744907 3.744907 0 0 0-1.012138-2.965562q-1.012137-0.890681-3.876485-0.890681a5.172021 5.172021 0 0 0-3.036411 0.759103 5.273234 5.273234 0 0 0-1.781362 2.692285z m9.66591 5.860274a45.040103 45.040103 0 0 1-4.392675 1.103229 13.238754 13.238754 0 0 0-3.927092 1.255051 3.036411 3.036411 0 0 0-1.416992 2.540464 3.54248 3.54248 0 0 0 1.133593 2.621435 3.947335 3.947335 0 0 0 2.87447 1.103229 6.255007 6.255007 0 0 0 3.724665-1.285414 4.524253 4.524253 0 0 0 1.720633-2.388643 14.240769 14.240769 0 0 0 0.283398-3.522238z" fill="#FFFFFF" p-id="3385"></path><path d="M541.623179 214.968424q-5.414934-28.957243-8.329889-58.703954H411.21943q-2.914955 29.736589-8.329888 58.703954h-0.425098s-22.408716 53.784967-30.667755 75.788828c-7.186174 19.159756-30.475449 96.740067-36.376209 116.395771h273.277027c-5.890638-19.70631-29.179914-97.2765-36.376209-116.395771-8.289403-22.003861-30.698119-75.788829-30.698119-75.788828z" fill="#261412" p-id="3386"></path><path d="M530.024087 89.372326q0-28.33984 2.28743-56.02179H412.191082q2.267187 27.722436 2.28743 56.02179 0 33.845866-3.269203 66.882022h122.083981q-3.238839-33.015913-3.269203-66.882022z" fill="#EFEFEF" p-id="3387"></path><path d="M566.43066 369.643221a5.060686 5.060686 0 0 1-5.060686-4.514132c-3.410902-31.376251-15.293392-64.867869-37.388345-105.555782a5.060686 5.060686 0 0 1 8.896685-4.827894c22.752843 41.882235 35.009824 76.60866 38.562425 109.310811a5.060686 5.060686 0 0 1-5.060686 5.607239zM588.110637 926.288281a5.060686 5.060686 0 0 1-4.777287-3.400781C556.208075 844.821363 551.673701 776.3098 552.685838 732.575355c1.082987-47.570445 8.532316-76.203805 8.846078-77.398127a5.060686 5.060686 0 0 1 9.787366 2.58095c-0.07085 0.283398-7.499936 28.987608-8.522194 75.424459-0.941288 42.813401 3.512116 109.907972 30.11108 186.374932a5.060686 5.060686 0 0 1-4.777288 6.720591z" fill="#FFFFFF" p-id="3388"></path><path d="M402.454323 35.708816S405.774133 15.182674 424.863039 6.225261c20.050437-9.433118 83.734105-7.08496 95.525503 0 13.157783 7.914912 20.050437 20.050437 21.25488 29.483555z" fill="#F41400" p-id="3389"></path></svg>