<?xml version="1.0" standalone="no"?><!DOCTYPE svg PUBLIC "-//W3C//DTD SVG 1.1//EN" "http://www.w3.org/Graphics/SVG/1.1/DTD/svg11.dtd"><svg t="1720942135721" class="icon" viewBox="0 0 1024 1024" version="1.1" xmlns="http://www.w3.org/2000/svg" p-id="12614" xmlns:xlink="http://www.w3.org/1999/xlink" width="48" height="48"><path d="M577.6 108H423V37.7c0-6.6 5.4-12 12-12h130.6c6.6 0 12 5.4 12 12V108z" fill="#C7F9E0" p-id="12615"></path><path d="M660.1 498.3c-3.9-85.3-71.7-286.8-88.3-335.1-2.4-7-3.7-14.3-3.7-21.6v-34.9H432.3v26.8c0 12.6-2.1 25.2-6.2 37.3-20.1 58.9-82 246.1-85.7 327.5-6.9 151.7 1.7 358.7 5.4 436.4 1.1 22.2 18.2 41.7 43.3 48.9 24.4 7 60.5 13.4 111 13.4 46.2 0 80.3-5.4 104.5-11.6 28.8-7.5 48.9-29.3 50.1-54.5 4-80.6 12.2-283.3 5.4-432.6z" fill="#A9EBFF" p-id="12616"></path><path d="M660.1 498.3c-3.9-85.3-71.7-286.8-88.3-335.1-2.4-7-3.7-14.3-3.7-21.6v-34.9h-55.7v34.9c0 7.3 1.2 14.6 3.7 21.6 16.6 48.3 84.4 249.8 88.3 335.1 6.8 149.3-1.4 352.1-5.3 432.5-1.2 25.2-21.3 47-50.1 54.5-19 4.9-44.2 9.3-76.6 10.9 8.8 0.4 18 0.7 27.9 0.7 46.2 0 80.3-5.4 104.5-11.6 28.8-7.5 48.9-29.3 50.1-54.5 3.8-80.5 12-283.2 5.2-432.5z" fill="#42B3C6" p-id="12617"></path><path d="M500.3 696.5c126.9 0 159.8-26.1 159.8-26.1V498.3c-0.4-8.5-1.4-18.2-3-28.8-10.4 6-50.8 24.2-156.8 24.2s-146.4-18.2-156.8-24.2c-1.6 10.6-2.6 20.3-3 28.8v172.1s32.9 26.1 159.8 26.1z" fill="#63F19F" p-id="12618"></path><path d="M660.1 670.4V498.3c-0.1-1.2-0.1-2.5-0.2-3.7 0-0.4-0.1-0.8-0.1-1.2-0.1-0.9-0.1-1.8-0.2-2.6 0-0.5-0.1-1-0.1-1.5-0.1-0.9-0.2-1.7-0.2-2.6 0-0.5-0.1-1-0.1-1.5-0.1-1.1-0.2-2.2-0.4-3.3-0.1-0.6-0.1-1.1-0.2-1.7-0.1-1.1-0.3-2.1-0.4-3.2-0.1-0.6-0.2-1.3-0.3-1.9-0.1-0.8-0.2-1.6-0.3-2.5l-0.3-2.1c0-0.3-0.1-0.6-0.1-0.9-6 3.4-21.7 10.8-53.7 16.5 0.4 4.3 0.7 8.4 0.9 12.3 2.7 58.6 3 125.5 2.2 189.9 40.7-7.7 53.5-17.9 53.5-17.9z" fill="#05A856" p-id="12619"></path><path d="M671.4 497.8c-3.9-85.5-69-280.5-88.9-338.2-2-5.9-3-11.9-3-18v-23.4c4.8-0.9 8.5-5.1 8.5-10.1v-70c0-12.5-10.2-22.7-22.7-22.7H435.4c-12.5 0-22.7 10.2-22.7 22.7V108c0 5.1 3.7 9.3 8.5 10.1v15.2c0 11.4-1.9 22.7-5.6 33.7-19.3 56.5-82.5 247.5-86.3 330.6-6.9 151.3 1.5 356.3 5.4 437.4 1.3 26.9 22 50.7 51.4 59.2 32 9.2 70.4 13.9 114.2 13.9 40.5 0 76.6-4 107.3-12 33.5-8.7 57.1-34.8 58.5-64.9 3.9-80.3 12.1-283.7 5.3-433.4zM567.3 38.1v57.3h-19.9V36h17.8c1.2 0 2.1 0.9 2.1 2.1zM463.5 95.3V36h17.7v59.3h-17.7z m28-59.3h17.7v59.3h-17.7V36z m28 0h17.7v59.3h-17.7V36z m-86.2 2.1c0-1.1 0.9-2.1 2.1-2.1h17.8v59.3h-19.9V38.1z m3.6 136.3c4.5-13.3 6.8-27.1 6.8-41v-15.1h113.1v23.2c0 8.6 1.4 17.1 4.3 25.3 12.3 35.8 68 200.6 83.7 297.2-16.6 7.1-57.7 19.3-144.6 19.3-86.9 0-128-12.2-144.6-19.3 14.8-90.6 64.6-240.8 81.3-289.6z m-86 348.4c0.3-8.1 0.6-16.2 1-24.1 0.2-4.3 0.6-8.9 1.1-13.7 7.5 2.8 17.6 6 31 8.8 31.1 6.7 70.3 10.1 116.4 10.1 46.1 0 85.3-3.4 116.4-10.1 13.4-2.9 23.5-6 31-8.9 0.5 4.9 0.9 9.4 1.1 13.7 0.4 7.9 0.7 15.9 1 24.1v141.6c-11.9 6-52.3 21.7-149.5 21.7s-137.6-15.7-149.5-21.7V522.8z m292.7 407.5c-1 20.2-17.7 37.9-41.6 44.1-28.8 7.5-63 11.3-101.6 11.3-41.6 0-77.9-4.4-107.9-13-20.2-5.8-34.3-21.3-35.1-38.6-2.4-49.6-6.5-145.8-7.7-247.4 20.6 8.4 64.7 20.1 150.8 20.1 86.1 0 130.2-11.7 150.8-20.1-1.4 100-5.4 194.6-7.7 243.6z" fill="#3F2D20" p-id="12620"></path></svg>