<?xml version="1.0" standalone="no"?><!DOCTYPE svg PUBLIC "-//W3C//DTD SVG 1.1//EN" "http://www.w3.org/Graphics/SVG/1.1/DTD/svg11.dtd"><svg t="1720942071032" class="icon" viewBox="0 0 1129 1024" version="1.1" xmlns="http://www.w3.org/2000/svg" p-id="9190" xmlns:xlink="http://www.w3.org/1999/xlink" width="52.921875" height="48"><path d="M655.17109 310.771453c-26.989794-22.077386-46.639427-31.314231-98.43783-31.31423-104.35548 0-137.58536 32.566041-153.574394 48.213673-1.782882 1.744948-3.319195 3.243327-4.779641 4.552038-14.680324 13.049177-41.404582 43.490933-65.416584 79.48997-17.866751 26.781159-4.191669 96.730816 5.784882 147.80848 3.376095 17.297746 6.296986 32.243605 7.833299 44.192706 6.031451 46.753228 24.201671 66.687362 40.75971 81.690122 21.33768 19.327196 76.910482 55.895238 134.588602 55.895238 66.137324 0 116.058012-17.221879 152.151883-32.224638 35.012762-14.547556 74.084425-71.54287 81.026283-81.974625l-15.533831-238.697512c-9.654115-9.331679-58.683361-56.597011-84.402379-77.631222z" fill="#FF8305" p-id="9191"></path><path d="M780.655615 182.441905H350.203486c-62.249125 0-112.71985 50.470726-112.71985 112.71985v430.452129c0 62.249125 50.470726 112.71985 112.71985 112.719851h430.452129c62.249125 0 112.71985-50.470726 112.71985-112.719851V295.142788c0-62.249125-50.470726-112.700884-112.71985-112.700883z m-14.244087 449.57069c-1.858749 2.882958-45.785919 70.860064-87.664672 88.271611-37.137046 15.438997-88.537146 33.154013-156.817722 33.154013-76.701847 0-140.070014-56.634944-142.72537-59.043731-19.497898-17.677082-38.407824-40.70281-44.64791-89.125118-1.498379-11.550797-4.514105-27.027728-7.719498-43.415066-10.962826-56.103873-24.599974-125.920762-3.964067-156.855656 24.732742-37.099113 51.703569-67.844339 67.446035-81.841857 1.251811-1.119043 2.693289-2.522588 4.36237-4.153735 17.127044-16.766675 52.765712-51.684602 162.052566-51.684602 55.193465 0 77.346719 10.507622 106.119395 34.06442 28.86751 23.613699 84.497212 77.669155 86.849099 79.964141l1.669081 1.631147 16.102836 247.365352-1.062143 1.669081z" fill="#FF8305" p-id="9192"></path><path d="M392.765045 387.795736l-128.651985 15.325196 34.273056 228.777862L559.900721 739.137232s41.385616-3.11056 97.280853-23.120562c36.909445-13.219878 34.00752-18.208154 77.763989-52.481209s131.800478-102.819167 131.800478-102.819167l-40.076905-142.877105-35.847302 2.636389-4.741707-52.196706-133.924762 10.014484-1.062142-14.244087-75.393136 8.914409s-36.909445-86.943933-109.666191-86.943933c-39.014762 0-85.40762 25.301747-96.484247 29.531349-11.076627 4.210635-27.938136 12.119802-27.938136 12.119802s7.909167 30.593491 51.153532 60.12484z" fill="#01098E" p-id="9193"></path><path d="M424.913816 394.642761c37.440516 19.516865 88.57508 6.847024 100.182778 5.272777 11.607698-1.574247 26.89496-2.105318 35.847302 11.076627 8.971309 13.181944 17.923651 26.89496 21.356647 32.679842 3.432996 5.803849 10.507622 5.215877 7.643631 0-3.414029-6.202152-20.028969-33.210913-29.531349-59.574802-9.483413-26.363889-40.589009-85.938691-95.953176-85.938691-32.167738 0-59.043731 14.756191-77.498453 22.153253-18.454722 7.378096-29.531349 12.650873-29.531349 12.650874s33.817852 44.135805 67.483969 61.68012z" fill="#77BE20" p-id="9194"></path><path d="M385.386949 403.120932l-106.517698 13.675082 30.593491 208.255756 42.580526-4.741707-7.776399-86.583563 47.967105-6.75219-6.847025-35.316232-44.439274 5.234845-3.546797-39.5079L392.233974 449.51379zM588.882032 390.432125l13.181944 90.149327-50.603493-51.134565-45.880754 5.272778 22.153254 169.772065 42.713293-5.272778-10.033451-85.161051 4.229602 0.018967 66.421827 77.745022 27.957102-5.253811-23.215396-202.470874zM773.429254 432.083276l-6.33492-47.986071-120.211747 7.378096 6.865991 47.455 26.344923-3.16746 12.66984 145.001389 50.603493-4.229603-6.847024-142.346033z" fill="#FFFFFF" p-id="9195"></path><path d="M811.381874 437.887125l-56.938413 8.971309v128.120914l32.167738-5.803849 1.062142-30.043454 22.665358-0.531071 11.607697 25.301747 27.938136-4.741707-38.502658-121.273889z m-15.021727 73.174017c-11.854267 0-15.021727-10.450721-15.021726-10.450721s18.189187 0 20.825575-3.432996h3.698532s2.351886 13.883717-9.502381 13.883717zM412.794014 428.915816l-18.454723 188.226787 33.741985-3.698531 7.378095-49.029247 25.832818-2.636389 17.923651 46.923929 37.440516-4.741706-61.168016-178.724407-42.694326 3.679564z m21.622182 103.862343l4.210635-32.167738h6.847025l10.014484 29.000277-21.072144 3.167461z" fill="#FFFFFF" p-id="9196"></path><path d="M392.233974 347.18776s22.665358-6.33492 42.182222 0 62.211191 29.000278 91.74254 34.273056c-16.349405 5.803849-49.029247 11.076627-63.804405 5.803849-14.756191-5.272778-37.95262-27.938136-70.120357-40.076905z" fill="#009844" p-id="9197"></path></svg>